# xmcd
#
# Track frame offsets:
#	150
#	19367
#	30850
#	38590
#	53582
#	62717
#	73222
#	83302
#	98960
#	109657
#	125157
#	136630
#	147480
#	159870
#	173025
#	190270
#	202070
#	215807
#	225007
#
# Disc length: 3171 seconds
#
# Revision: 1
# Processed by: cddbd v1.4PL0 Copyright (c) Steve Scherf et al.
# Submitted via: audiograbber 1.80
#
DISCID=fc0c6113
DTITLE=The Best Of Western Star - Volume II
DYEAR=1900
DGENRE=
TTITLE0=Frenzy - Edge Of Time
TTITLE1=The Blue Jays - Surprise Surprise
TTITLE2=Howlin´ Wilson - Wedding of the Bugs
TTITLE3=Shock Therapy - Skeleton Man
TTITLE4=Bill Fadden and the Silvertone Flyers - Rain
TTITLE5=Popeye´s Dik - King Sperm
TTITLE6=Frantic Flintstones - Chuck´s Mambo
TTITLE7=Jean Vincent - Freedom Road
TTITLE8=J.D. and the Chasers - Shakin´ withe Cats
TTITLE9=Reservoir Teds - Tiger Feet
TTITLE10=Chuck and the Hula´s - Witch Doctor
TTITLE11=Dawg House - Venus in Blue Jeans
TTITLE12=Death Valley Surfers - Thunder Road
TTITLE13=Frantic Flintstones - You Win Again (alt´ take)
TTITLE14=The Heartbeats - What a Mess
TTITLE15=Shock Therapy - No Guilty
TTITLE16=Just Rockin´ - Two Times Nine
TTITLE17=J.D. and the Chasers - Kitty Cat
TTITLE18=Bill Smarme and the Bizness - The Hit Parade of Love
EXTD=
EXTT0=
EXTT1=
EXTT2=
EXTT3=
EXTT4=
EXTT5=
EXTT6=
EXTT7=
EXTT8=
EXTT9=
EXTT10=
EXTT11=
EXTT12=
EXTT13=
EXTT14=
EXTT15=
EXTT16=
EXTT17=
EXTT18=
PLAYORDER=
